<svg width="33" height="33" viewBox="0 0 33 33" fill="none" xmlns="http://www.w3.org/2000/svg"><path fill-rule="evenodd" clip-rule="evenodd" d="M20.5 7.5C21.0523 7.5 21.5 7.94772 21.5 8.5V9.5H23.5C24.6046 9.5 25.5 10.3954 25.5 11.5V17.0278C24.4385 16.0777 23.0367 15.5 21.5 15.5C18.1863 15.5 15.5 18.1863 15.5 21.5C15.5 23.0367 16.0777 24.4385 17.0278 25.5H9.5C8.39543 25.5 7.5 24.6046 7.5 23.5V11.5C7.5 10.3954 8.39543 9.5 9.5 9.5H11.5V8.5C11.5 7.94772 11.9477 7.5 12.5 7.5C13.0523 7.5 13.5 7.94772 13.5 8.5V9.5H19.5V8.5C19.5 7.94772 19.9477 7.5 20.5 7.5ZM21.5 17.5C23.7091 17.5 25.5 19.2909 25.5 21.5C25.5 23.7091 23.7091 25.5 21.5 25.5C19.2909 25.5 17.5 23.7091 17.5 21.5C17.5 19.2909 19.2909 17.5 21.5 17.5ZM21.5 19C20.9872 19 20.5645 19.386 20.5067 19.8834L20.5 20V21.5C20.5 22.0128 20.886 22.4355 21.3834 22.4933L21.5 22.5H22.5C23.0523 22.5 23.5 22.0523 23.5 21.5C23.5 20.9872 23.114 20.5645 22.6166 20.5067L22.5 20.5V20C22.5 19.4477 22.0523 19 21.5 19ZM13 18.5H12.5C11.9477 18.5 11.5 18.9477 11.5 19.5C11.5 20.0523 11.9477 20.5 12.5 20.5H13C13.5523 20.5 14 20.0523 14 19.5C14 18.9477 13.5523 18.5 13 18.5ZM15.5 14.5H12.5C11.9477 14.5 11.5 14.9477 11.5 15.5C11.5 16.0128 11.886 16.4355 12.3834 16.4933L12.5 16.5H15.5C16.0523 16.5 16.5 16.0523 16.5 15.5C16.5 14.9872 16.114 14.5645 15.6166 14.5067L15.5 14.5Z" fill="#2852E4"></path></svg>