<svg xmlns="http://www.w3.org/2000/svg" width="33" height="33" viewBox="0 0 33 33" fill="none"><path fill-rule="evenodd" clip-rule="evenodd" d="M27.166 7.1665C28.6388 7.1665 29.8327 8.36041 29.8327 9.83317V23.1665C29.8327 24.6393 28.6388 25.8332 27.166 25.8332H5.83268C4.35992 25.8332 3.16602 24.6393 3.16602 23.1665V9.83317C3.16602 8.36041 4.35992 7.1665 5.83268 7.1665H27.166ZM5.99948 19.1665L5.83268 19.1701V21.8448C5.88703 21.8372 5.94271 21.8332 5.99948 21.8332C6.64366 21.8332 7.16602 22.3554 7.16602 22.9998L7.16306 23.0841L7.15432 23.1665H9.8291L9.83268 22.9998C9.83268 20.8828 8.11658 19.1665 5.99948 19.1665ZM26.9992 19.1665C24.9578 19.1665 23.2891 20.7624 23.1725 22.7746L23.166 22.9998C23.166 23.0557 23.1672 23.1112 23.1696 23.1665H25.8443C25.8367 23.1122 25.8327 23.0565 25.8327 22.9998C25.8327 22.3554 26.3549 21.8332 26.9992 21.8332C27.056 21.8332 27.1116 21.8372 27.166 21.8448V19.1701L26.9992 19.1665ZM16.4993 11.1665C13.5538 11.1665 11.166 13.5543 11.166 16.4998C11.166 19.4453 13.5538 21.8332 16.4993 21.8332C19.4448 21.8332 21.8327 19.4453 21.8327 16.4998C21.8327 13.5543 19.4448 11.1665 16.4993 11.1665ZM16.4993 13.8332C17.9721 13.8332 19.166 15.027 19.166 16.4998C19.166 17.9726 17.9721 19.1665 16.4993 19.1665C15.0265 19.1665 13.8327 17.9726 13.8327 16.4998C13.8327 15.027 15.0265 13.8332 16.4993 13.8332ZM9.83268 9.83317H7.16602V9.9998C7.16602 10.6442 6.64366 11.1665 5.99948 11.1665C5.94271 11.1665 5.88703 11.1625 5.83268 11.1548V13.8295L5.99948 13.8331C8.11658 13.8331 9.83268 12.1168 9.83268 9.9998V9.83317ZM25.8443 9.83317H23.1696L23.166 9.9998C23.166 12.0412 24.7618 13.71 26.774 13.8266L27.0828 13.8322L27.166 13.8295V11.1548C27.1116 11.1625 27.056 11.1665 26.9992 11.1665C26.3549 11.1665 25.8327 10.6442 25.8327 9.9998L25.8356 9.91557L25.8443 9.83317Z" fill="#2852E4"></path></svg>