<svg width="41" height="40" viewBox="0 0 41 40" fill="none" xmlns="http://www.w3.org/2000/svg"><rect x="0.832031" y="0.5" width="39" height="39" rx="19.5" fill="#F8FAFC"></rect><rect x="0.832031" y="0.5" width="39" height="39" rx="19.5" stroke="#E2E8F0"></rect><path d="M20.332 20.8337C22.3283 20.8337 24.1448 21.4117 25.4801 22.2266C26.1475 22.6338 26.7171 23.1139 27.1287 23.6349C27.5337 24.1476 27.832 24.7612 27.832 25.417C27.832 26.1211 27.4894 26.6762 26.9964 27.0719C26.5294 27.4469 25.9139 27.695 25.2594 27.8683C23.9448 28.2164 22.1895 28.3337 20.332 28.3337C18.4745 28.3337 16.7192 28.2164 15.4047 27.8683C14.7502 27.695 14.1347 27.4469 13.6676 27.0719C13.1746 26.6762 12.832 26.1211 12.832 25.417C12.832 24.7612 13.1304 24.1476 13.5353 23.6349C13.9469 23.1139 14.5166 22.6338 15.1839 22.2266C16.5193 21.4117 18.3358 20.8337 20.332 20.8337ZM20.332 11.667C22.6332 11.667 24.4987 13.5325 24.4987 15.8337C24.4987 18.1348 22.6332 20.0003 20.332 20.0003C18.0308 20.0003 16.1654 18.1348 16.1654 15.8337C16.1654 13.5325 18.0308 11.667 20.332 11.667Z" fill="#748297"></path></svg>