<svg width="18" height="18" viewBox="0 0 18 18" fill="none" xmlns="http://www.w3.org/2000/svg">
    <path fill-rule="evenodd" clip-rule="evenodd" d="M15 0C16.6569 0 18 1.34315 18 3V15C18 16.6569 16.6569 18 15 18H3C1.34315 18 0 16.6569 0 15V3C0 1.34315 1.34315 0 3 0H15ZM5 7C4.44772 7 4 7.4477 4 8V13C4 13.5523 4.44772 14 5 14C5.55228 14 6 13.5523 6 13V8C6 7.4477 5.55228 7 5 7ZM8 6C7.4477 6 7 6.44772 7 7V13C7 13.5523 7.4477 14 8 14C8.5523 14 9 13.5523 9 13V9.3398C9.3049 8.9955 9.8207 8.5921 10.3933 8.3472C10.7261 8.2048 11.2268 8.1479 11.5751 8.2574C11.7274 8.3053 11.8143 8.3726 11.868 8.4451C11.9201 8.5157 12 8.6707 12 9V13C12 13.5522 12.4477 14 13 14C13.5523 14 14 13.5522 14 13V9C14 8.3292 13.8298 7.7342 13.4758 7.2556C13.1232 6.77907 12.6476 6.4981 12.1749 6.34949C11.2732 6.06594 10.2739 6.22295 9.6067 6.50837C9.395 6.59892 9.1863 6.70435 8.9841 6.82128C8.8998 6.35427 8.4913 6 8 6ZM5 4C4.44772 4 4 4.44772 4 5C4 5.55228 4.44772 6 5 6C5.55228 6 6 5.55228 6 5C6 4.44772 5.55228 4 5 4Z" fill="#748297"/>
</svg>
