<svg width="33" height="33" viewBox="0 0 33 33" fill="none" xmlns="http://www.w3.org/2000/svg"><path d="M17.5 17.5C19.7091 17.5 21.5 19.2909 21.5 21.5V23C21.5 23.8284 20.8284 24.5 20 24.5H8C7.17157 24.5 6.5 23.8284 6.5 23V21.5C6.5 19.2909 8.29086 17.5 10.5 17.5H17.5ZM23.5 17.5002C25.1569 17.5002 26.5 18.8434 26.5 20.5002V22.0002C26.5 22.8287 25.8284 23.5002 25 23.5002H23.5V21.5C23.5 19.8645 22.7148 18.4125 21.5008 17.5002H23.5ZM14 7.5C16.4853 7.5 18.5 9.51472 18.5 12C18.5 14.4853 16.4853 16.5 14 16.5C11.5147 16.5 9.5 14.4853 9.5 12C9.5 9.51472 11.5147 7.5 14 7.5ZM22.5 10.5C24.1569 10.5 25.5 11.8432 25.5 13.5C25.5 15.1569 24.1569 16.5 22.5 16.5C20.8431 16.5 19.5 15.1569 19.5 13.5C19.5 11.8432 20.8431 10.5 22.5 10.5Z" fill="#2852E4"></path></svg>