<svg width="33" height="33" viewBox="0 0 33 33" fill="none" xmlns="http://www.w3.org/2000/svg"><path d="M23.5 8.5C24.6046 8.5 25.5 9.39543 25.5 10.5V11.5H19.5C16.7386 11.5 14.5 13.7386 14.5 16.5C14.5 19.2614 16.7386 21.5 19.5 21.5H25.5V22.5C25.5 23.6046 24.6046 24.5 23.5 24.5H9.5C8.39543 24.5 7.5 23.6046 7.5 22.5V10.5C7.5 9.39543 8.39543 8.5 9.5 8.5H23.5ZM24.5 13.5C25.6046 13.5 26.5 14.3954 26.5 15.5V17.5C26.5 18.6046 25.6046 19.5 24.5 19.5H19.5C17.8431 19.5 16.5 18.1569 16.5 16.5C16.5 14.8431 17.8431 13.5 19.5 13.5H24.5ZM19.5 15.5C18.9477 15.5 18.5 15.9477 18.5 16.5C18.5 17.0523 18.9477 17.5 19.5 17.5C20.0523 17.5 20.5 17.0523 20.5 16.5C20.5 15.9477 20.0523 15.5 19.5 15.5Z" fill="#2852E4"></path></svg>